<?xml version="1.0" standalone="no"?>
<!DOCTYPE svg PUBLIC "-//W3C//DTD SVG 20010904//EN"
 "http://www.w3.org/TR/2001/REC-SVG-20010904/DTD/svg10.dtd">
<svg version="1.0" xmlns="http://www.w3.org/2000/svg"
 width="7813.000000pt" height="1978.000000pt" viewBox="0 0 7813.000000 1978.000000"
 preserveAspectRatio="xMidYMid meet">

<g transform="translate(0.000000,1978.000000) scale(0.100000,-0.100000)"
fill="#000000" stroke="none">
<path d="M44053 19770 c-99 -20 -135 -55 -147 -145 -4 -31 -15 -49 -50 -81
-78 -71 -200 -99 -491 -109 -281 -10 -428 -32 -627 -94 -54 -17 -170 -46 -259
-66 -154 -34 -276 -55 -799 -140 -285 -46 -546 -98 -875 -174 -508 -117 -1103
-227 -1555 -286 -516 -68 -679 -132 -754 -294 -17 -38 -20 -65 -20 -161 0
-262 55 -304 439 -340 222 -21 363 -57 520 -135 278 -138 494 -397 658 -789
121 -291 152 -469 177 -1026 37 -841 49 -3300 50 -10077 l0 -5151 178 -71
c259 -102 395 -133 692 -156 217 -17 367 -42 540 -90 241 -66 477 -106 890
-149 1126 -120 2954 -161 3970 -90 259 18 426 36 625 70 1135 191 2093 598
2985 1268 191 143 309 245 519 451 354 346 698 734 950 1070 196 262 273 398
297 522 18 95 49 152 135 248 84 95 106 138 124 253 17 106 39 162 91 228 107
140 227 543 363 1220 159 789 261 1612 261 2102 0 445 -70 1113 -181 1722 -66
365 -123 579 -189 710 -50 99 -75 185 -89 297 -17 136 -76 297 -211 568 -173
349 -341 623 -582 948 -136 183 -210 301 -239 379 -25 70 -85 143 -213 263
-280 261 -689 584 -1015 803 -182 122 -291 179 -369 193 -76 14 -137 49 -224
127 -102 92 -146 110 -341 142 -95 15 -216 55 -326 107 -188 88 -361 112 -986
134 -359 13 -1103 7 -1345 -11 -515 -37 -844 -117 -1357 -331 -249 -103 -441
-161 -711 -213 -215 -42 -272 -34 -311 46 -52 109 -56 149 -54 632 3 914 78
2918 163 4361 25 427 77 1125 95 1278 l6 47 -183 -1 c-101 -1 -202 -5 -225 -9z
m1733 -7126 c49 -14 163 -54 254 -88 220 -85 340 -122 429 -135 187 -25 580
-287 907 -604 224 -216 407 -477 647 -922 187 -345 291 -604 307 -763 11 -104
51 -234 103 -339 167 -330 258 -1253 258 -2588 0 -1325 -92 -2269 -256 -2627
-62 -135 -93 -257 -105 -413 -11 -141 -12 -148 -42 -245 -26 -81 -48 -127
-104 -211 -61 -93 -102 -195 -115 -286 -20 -143 -81 -282 -304 -693 -67 -124
-152 -285 -189 -357 -107 -212 -231 -370 -467 -597 -220 -212 -435 -376 -710
-543 -360 -217 -474 -241 -1074 -223 -611 19 -839 30 -845 40 -3 5 -12 144
-18 307 -7 164 -26 586 -42 938 -162 3527 -239 6428 -227 8467 5 856 12 1112
37 1343 18 166 21 172 93 205 156 70 819 260 1232 353 56 13 148 5 231 -19z"/>
<path d="M110 18970 c0 -109 5 -223 11 -252 33 -157 143 -254 329 -293 41 -9
158 -20 260 -25 238 -12 274 -16 397 -45 610 -144 1209 -679 1392 -1241 62
-192 203 -803 251 -1092 71 -425 101 -908 120 -1912 23 -1248 16 -8075 -9
-8925 -26 -897 -53 -1223 -142 -1721 -75 -423 -153 -766 -230 -1006 -41 -129
-127 -293 -250 -474 -301 -446 -637 -652 -1219 -744 -331 -53 -390 -63 -478
-86 -221 -57 -350 -141 -405 -263 -29 -64 -36 -238 -13 -308 31 -93 104 -140
235 -154 47 -4 682 -13 1411 -19 1257 -11 4188 -3 7400 19 l935 6 13 105 c7
58 14 159 15 225 1 107 -1 126 -22 172 -67 150 -226 210 -706 268 -502 60
-780 128 -932 227 -327 214 -662 546 -663 657 -1 44 -36 107 -99 175 -100 108
-152 240 -192 486 -11 69 -46 280 -79 470 -65 376 -72 439 -95 760 -55 799
-96 1945 -125 3490 -22 1160 -8 1547 59 1679 45 88 138 125 353 142 152 11
470 1 868 -26 1128 -79 1587 -204 1994 -543 353 -295 898 -1221 946 -1610 19
-151 30 -189 69 -249 146 -226 488 -325 668 -194 26 19 51 50 68 85 25 51 28
71 36 218 19 365 21 2404 5 4168 -9 965 -18 1755 -19 1756 -9 9 -403 34 -445
29 -241 -30 -351 -167 -372 -466 -14 -192 -55 -320 -150 -458 -57 -85 -99
-177 -110 -243 -11 -70 -30 -115 -88 -208 -172 -277 -483 -644 -662 -780 -175
-133 -367 -248 -499 -300 -143 -56 -351 -92 -641 -111 -225 -14 -1298 -14
-1580 0 -237 13 -448 34 -496 51 -24 8 -33 19 -38 42 -28 139 37 4320 99 6393
19 635 33 895 48 913 16 20 45 29 145 47 619 107 3281 107 4112 -1 157 -20
227 -39 278 -75 66 -48 182 -97 254 -109 85 -13 125 -28 249 -90 332 -167 790
-489 984 -691 166 -174 451 -534 612 -776 30 -45 99 -168 153 -272 54 -105
137 -257 184 -339 165 -290 237 -451 262 -585 17 -91 45 -163 137 -362 70
-150 133 -323 162 -445 34 -143 97 -228 204 -279 51 -24 66 -26 181 -26 114 1
133 4 213 32 49 18 158 69 242 115 l155 83 0 2593 0 2592 -7875 0 -7875 0 0
-200z"/>
<path d="M20205 14234 c-93 -10 -168 -26 -204 -45 -56 -29 -261 -78 -659 -159
-526 -107 -840 -193 -1202 -327 -1654 -615 -2869 -1855 -3594 -3668 -145 -363
-291 -801 -335 -1008 -56 -259 -97 -662 -133 -1302 -18 -314 -18 -1627 0
-1860 26 -352 52 -512 108 -677 73 -215 108 -368 119 -518 17 -228 109 -493
355 -1014 115 -246 153 -343 164 -417 32 -218 1049 -1452 1511 -1834 419 -346
1185 -765 1836 -1004 520 -191 1433 -301 2494 -301 1035 0 1948 110 2465 297
605 218 1200 513 1655 818 984 661 1692 1566 2299 2940 135 306 173 433 216
725 13 91 66 254 114 347 43 87 61 155 80 308 30 235 38 482 43 1430 7 1266
-10 1832 -63 2091 -9 46 -38 127 -69 194 -73 159 -106 276 -119 431 -16 174
-135 494 -365 976 -90 189 -151 349 -151 394 0 39 -51 136 -144 273 -333 494
-1070 1306 -1431 1575 -316 237 -814 530 -1233 726 -488 228 -811 335 -1075
355 -194 15 -365 47 -647 124 -170 46 -435 81 -840 112 -192 14 -1095 28
-1195 18z m607 -889 c125 -19 364 -76 448 -108 652 -245 1324 -1102 1679
-2141 113 -330 156 -509 231 -958 28 -164 70 -400 94 -525 61 -313 71 -421 97
-1048 16 -404 23 -2374 10 -2920 -21 -871 -38 -1103 -105 -1450 -25 -126 -70
-365 -101 -530 -31 -165 -76 -381 -101 -480 -152 -604 -402 -1139 -732 -1560
-86 -110 -347 -363 -447 -433 -168 -119 -363 -200 -575 -238 -118 -22 -416
-29 -580 -15 -486 42 -628 101 -935 387 -193 179 -407 427 -547 633 -129 188
-405 792 -557 1219 -124 346 -176 564 -277 1157 -41 242 -88 514 -104 605 -45
257 -62 473 -81 1075 -14 440 -14 1952 0 2435 21 705 36 905 96 1305 40 264
87 595 115 815 33 256 92 465 179 634 67 129 87 202 100 354 15 170 50 256
145 361 61 68 103 156 115 246 6 42 23 94 42 132 101 200 494 584 815 799 189
125 315 174 599 233 169 35 235 38 377 16z"/>
<path d="M60165 14221 c-28 -5 -66 -16 -84 -26 -76 -39 -334 -102 -823 -199
-649 -130 -983 -233 -1277 -395 -69 -38 -207 -102 -306 -142 -312 -128 -476
-231 -905 -575 -315 -251 -547 -458 -843 -752 -364 -361 -496 -522 -615 -746
-73 -138 -120 -217 -270 -455 -49 -79 -117 -198 -150 -265 -286 -578 -311
-639 -331 -814 -12 -108 -47 -200 -121 -311 -82 -126 -140 -320 -140 -469 0
-118 -47 -368 -120 -642 -57 -212 -78 -350 -105 -680 -26 -315 -36 -784 -25
-1125 15 -486 36 -684 100 -955 51 -216 102 -466 135 -665 47 -278 109 -479
173 -563 19 -25 46 -70 59 -99 23 -50 28 -72 53 -241 13 -96 50 -168 127 -254
77 -87 110 -151 123 -248 15 -107 54 -184 144 -280 79 -84 108 -131 120 -190
12 -66 134 -249 311 -470 445 -553 972 -1063 1525 -1475 310 -231 508 -349
730 -436 85 -34 259 -104 385 -156 933 -384 1566 -493 2855 -493 671 0 1184
35 1687 115 368 59 455 85 978 292 628 248 965 419 1376 693 557 372 1094 867
1253 1154 61 109 79 205 55 290 -14 51 -97 133 -171 169 -184 88 -273 62 -730
-219 -301 -186 -505 -283 -634 -303 -93 -14 -205 -52 -329 -111 -104 -50 -172
-71 -287 -90 -367 -58 -1431 -72 -1923 -25 -298 28 -532 77 -793 164 -300 100
-738 301 -943 433 -635 408 -1322 1156 -1609 1753 -129 269 -359 896 -450
1230 -81 300 -138 636 -160 945 -5 80 -10 373 -10 651 l0 506 1713 7 c1803 7
4248 21 5693 32 l861 7 12 296 c7 163 13 309 15 325 6 55 -13 371 -29 496 -23
173 -40 259 -90 456 -60 234 -102 448 -115 584 -30 323 -50 392 -166 571 -60
92 -92 172 -104 259 -6 39 -19 99 -31 133 -30 89 -131 297 -236 482 -50 88
-125 228 -168 310 -102 196 -133 249 -223 375 -188 263 -433 544 -677 775 -93
88 -255 244 -359 346 -212 205 -266 242 -387 259 -112 16 -157 37 -259 121
-123 101 -439 227 -871 349 -547 154 -911 212 -1729 275 -230 18 -808 28 -885
16z m704 -981 c244 -33 350 -90 565 -299 253 -248 397 -481 522 -844 40 -118
73 -242 161 -612 30 -127 102 -345 137 -414 30 -58 41 -120 60 -321 27 -279
39 -719 33 -1192 -5 -450 -16 -622 -41 -683 -13 -31 -17 -32 -82 -39 -219 -20
-884 -39 -2159 -61 -484 -9 -1091 -20 -1350 -24 -258 -5 -471 -8 -472 -7 -1 0
-9 141 -19 311 -14 259 -15 336 -6 471 15 197 39 334 87 484 53 167 119 429
160 635 66 331 134 568 250 875 81 214 117 286 245 485 103 162 201 328 249
422 54 108 114 186 233 304 247 244 573 466 732 499 29 6 88 15 132 20 95 11
460 5 563 -10z"/>
<path d="M73025 14224 c-385 -13 -748 -39 -963 -69 -113 -16 -147 -24 -377
-89 -158 -44 -300 -71 -464 -86 -191 -17 -293 -52 -469 -159 -86 -53 -204 -90
-322 -101 -128 -12 -186 -35 -259 -103 -65 -60 -159 -116 -331 -199 -122 -59
-272 -161 -460 -313 -358 -289 -779 -694 -970 -934 -28 -35 -89 -139 -136
-230 -46 -91 -116 -222 -155 -291 -39 -69 -102 -186 -139 -260 -194 -384 -211
-501 -211 -1474 0 -991 21 -1177 156 -1395 76 -123 123 -225 136 -296 6 -33
17 -78 25 -100 53 -156 315 -478 666 -820 499 -487 955 -821 1164 -854 82 -13
127 -37 210 -113 116 -106 174 -134 316 -149 112 -11 228 -54 334 -123 108
-69 212 -113 305 -126 211 -31 300 -62 429 -150 104 -71 196 -109 290 -120 47
-6 131 -27 188 -46 505 -172 1500 -793 1816 -1135 184 -199 352 -550 423 -887
23 -111 27 -149 27 -307 -1 -212 -13 -271 -95 -449 -67 -145 -107 -268 -119
-358 -19 -151 -136 -326 -389 -579 -271 -269 -592 -490 -841 -577 -183 -64
-224 -67 -860 -67 -585 0 -654 3 -840 41 -245 50 -554 197 -905 429 -233 155
-410 299 -606 495 -187 186 -257 271 -452 550 -76 108 -163 227 -193 265 -141
175 -272 402 -367 635 -121 296 -358 819 -435 957 -112 203 -201 262 -381 250
-149 -9 -271 -66 -291 -134 -50 -179 -33 -1968 31 -3168 13 -252 36 -551 50
-650 11 -73 15 -83 49 -116 50 -48 143 -84 296 -114 186 -37 264 -58 529 -145
620 -202 1159 -309 1910 -379 956 -90 2574 -92 3425 -5 566 57 1349 290 1593
472 76 57 128 77 237 92 207 28 539 262 945 666 491 488 922 1062 1073 1430
39 93 62 197 62 276 1 139 59 303 125 354 19 14 56 31 81 38 29 7 55 22 66 36
56 76 71 356 65 1191 -3 396 -9 673 -16 719 -23 154 -54 220 -105 220 -60 0
-144 98 -171 199 -158 588 -466 1015 -1140 1579 -254 213 -328 262 -570 382
-121 60 -294 152 -385 205 -276 162 -280 164 -775 350 -449 169 -612 236
-1155 475 -140 61 -343 148 -450 192 -260 106 -387 174 -690 373 -258 169
-533 382 -704 545 -201 192 -374 443 -471 685 -54 135 -134 418 -147 522 -15
118 -2 220 53 414 119 423 246 732 366 894 81 109 241 260 410 387 408 307
439 317 1034 325 658 10 925 -22 1081 -128 90 -62 195 -107 283 -124 109 -21
192 -74 438 -277 159 -132 529 -503 641 -643 267 -336 439 -652 841 -1547 152
-337 209 -437 286 -498 123 -97 236 -91 361 19 90 80 119 186 138 496 20 336
9 1548 -20 2170 -27 586 -62 741 -193 846 -224 181 -848 359 -1672 479 -333
49 -559 91 -795 150 -170 43 -245 54 -455 70 -143 11 -829 20 -1010 14z"/>
<path d="M37310 14213 c-289 -22 -513 -82 -870 -230 -840 -350 -1433 -802
-1941 -1483 -48 -63 -146 -202 -219 -309 -195 -288 -355 -481 -437 -533 -33
-19 -35 -20 -54 -2 -61 55 -87 349 -109 1219 -20 774 -55 1230 -101 1316 -14
27 -78 24 -159 -5 -36 -13 -99 -36 -140 -51 -116 -42 -377 -97 -810 -170 -699
-117 -1248 -222 -1700 -325 -376 -85 -565 -119 -920 -165 -308 -40 -634 -118
-717 -171 -36 -23 -184 -62 -299 -79 -59 -9 -209 -20 -333 -25 -354 -14 -503
-55 -600 -166 -69 -78 -91 -178 -71 -324 29 -217 58 -237 381 -265 262 -23
394 -54 566 -135 321 -150 579 -434 676 -745 96 -308 165 -1229 209 -2790 17
-597 17 -3016 0 -3705 -61 -2502 -79 -2717 -267 -3090 -187 -371 -439 -606
-770 -714 -44 -15 -163 -42 -265 -61 -194 -36 -262 -55 -347 -99 -103 -52
-161 -123 -182 -224 -15 -71 -14 -99 6 -291 l17 -164 3500 6 c3353 6 3930 11
4291 37 334 25 413 58 460 189 22 65 19 119 -12 182 -93 187 -322 276 -883
344 -467 56 -564 75 -711 139 -120 51 -183 93 -274 178 -234 220 -368 582
-465 1255 -86 602 -124 1178 -161 2463 -16 581 -23 2660 -10 3215 18 791 34
1041 81 1330 70 425 138 559 352 699 103 67 393 211 537 267 261 100 397 120
894 126 660 9 918 -22 1176 -142 150 -69 226 -94 334 -110 101 -16 190 -54
265 -112 67 -54 209 -126 319 -163 103 -34 204 -40 252 -15 58 29 112 108 210
305 104 210 174 399 191 518 12 90 44 153 113 229 103 112 132 176 147 316 14
135 62 266 135 367 73 100 110 196 125 318 16 126 63 256 195 532 285 597 334
737 305 862 -11 43 -24 63 -71 111 -159 158 -615 290 -1164 337 -110 9 -569
11 -675 3z"/>
</g>
</svg>
